<svg xmlns="http://www.w3.org/2000/svg" width="25" height="16.667" viewBox="0 0 25 16.667"><g transform="translate(-568 -1978)"><path d="M45.9,32.4a3.081,3.081,0,0,0-2.948,0L32.535,38.81a.98.98,0,0,0,0,1.815,3.081,3.081,0,0,0,2.948,0l8.942-5.5,8.942,5.5a3.081,3.081,0,0,0,2.948,0,.98.98,0,0,0,0-1.815L45.9,32.4ZM56.308,46.5,45.9,40.092a3.081,3.081,0,0,0-2.948,0L32.535,46.5a.98.98,0,0,0,0,1.815,3.081,3.081,0,0,0,2.948,0l8.942-5.5,8.942,5.5a3.081,3.081,0,0,0,2.948,0,.98.98,0,0,0,0-1.815Z" transform="translate(536.075 1945.975)" fill="#d5d5d5"/></g></svg>